<?xml version="1.0" standalone="no"?><!DOCTYPE svg PUBLIC "-//W3C//DTD SVG 1.1//EN" "http://www.w3.org/Graphics/SVG/1.1/DTD/svg11.dtd"><svg t="1712389576689" class="icon" viewBox="0 0 1024 1024" version="1.1" xmlns="http://www.w3.org/2000/svg" p-id="9641" xmlns:xlink="http://www.w3.org/1999/xlink" width="128" height="128"><path d="M237.050256 967.839024H46.758751v-900.000022h190.291505v110.883002H135.922503v678.234017h101.127753zM710.215517 576.052514q0 49.897501-12.534 89.168252-12.24975 39.270751-33.900001 65.143502-25.068001 30.492751-55.263751 43.429501-29.910751 12.936-76.059752 12.936H347.295008V98.793752h164.653504q51.276001 0 74.919752 5.544001 23.929501 5.544 47.288251 24.48675 24.213751 19.86675 35.893501 53.593501 11.964 33.264751 11.964001 76.232252 0 49.897501-16.237501 88.244252-16.2375 37.884751-45.863251 59.137502v3.696q41.590501 13.398 65.805002 55.441501 24.498001 42.042751 24.498 110.883003zM570.060764 293.301007q0-17.09475-5.41275-34.188751-5.12775-17.09475-18.516001-25.41075-11.96475-7.39275-29.9115-7.85475-17.66175-0.924-49.851752-0.924001h-10.2555v145.534504h17.092501q25.923001 0 44.154001-1.386 18.2325-1.38675 28.77225-9.24 14.8125-10.6275 19.371001-27.259501 4.55775-17.094 4.55775-39.270751z m26.777251 279.979507q0-32.802751-7.976251-50.359501-7.69125-18.01875-26.49225-26.796751-12.819-6.006-35.324251-6.468-22.504501-0.462-47.002501-0.462H456.112511V660.600016h7.97625q46.149001 0 66.090002-0.462 19.94025-0.462 36.747751-12.01275 17.0925-11.55 23.35875-30.492751 6.552-19.404 6.552001-44.352751zM984.258024 967.839024h-190.291505v-110.883003h101.127753V178.722004h-101.127753V67.839002h190.291505z" p-id="9642" data-spm-anchor-id="a313x.search_index.0.i8.23ca3a81sEAkZZ" class="selected" fill="#7f5700"></path></svg>