<?xml version="1.0" standalone="no"?><!DOCTYPE svg PUBLIC "-//W3C//DTD SVG 1.1//EN" "http://www.w3.org/Graphics/SVG/1.1/DTD/svg11.dtd"><svg t="1713483037716" class="icon" viewBox="0 0 1024 1024" version="1.1" xmlns="http://www.w3.org/2000/svg" p-id="4445" xmlns:xlink="http://www.w3.org/1999/xlink" width="128" height="128"><path d="M640 725.333333a42.666667 42.666667 0 1 0 42.666667 42.666667 42.666667 42.666667 0 0 0-42.666667-42.666667z m-170.666667 0H384a42.666667 42.666667 0 0 0 0 85.333334h85.333333a42.666667 42.666667 0 0 0 0-85.333334z m0-256H384a42.666667 42.666667 0 0 0 0 85.333334h85.333333a42.666667 42.666667 0 0 0 0-85.333334z m170.666667 0a42.666667 42.666667 0 1 0 42.666667 42.666667 42.666667 42.666667 0 0 0-42.666667-42.666667z m341.333333-128a128 128 0 0 0-128-128h-42.666666a128 128 0 0 0-128-128H341.333333a128 128 0 0 0-128 128H170.666667a128 128 0 0 0-128 128v85.333334a128 128 0 0 0 33.28 85.333333A128 128 0 0 0 42.666667 597.333333v85.333334a128 128 0 0 0 128 128h42.666666a128 128 0 0 0 128 128h341.333334a128 128 0 0 0 128-128h42.666666a128 128 0 0 0 128-128v-85.333334a128 128 0 0 0-33.28-85.333333 128 128 0 0 0 33.28-85.333333zM213.333333 725.333333H170.666667a42.666667 42.666667 0 0 1-42.666667-42.666666v-85.333334a42.666667 42.666667 0 0 1 42.666667-42.666666h42.666666a128 128 0 0 0 33.28 85.333333A128 128 0 0 0 213.333333 725.333333z m0-256H170.666667a42.666667 42.666667 0 0 1-42.666667-42.666666V341.333333a42.666667 42.666667 0 0 1 42.666667-42.666666h42.666666a128 128 0 0 0 33.28 85.333333A128 128 0 0 0 213.333333 469.333333z m512 341.333334a42.666667 42.666667 0 0 1-42.666666 42.666666H341.333333a42.666667 42.666667 0 0 1-42.666666-42.666666v-85.333334a42.666667 42.666667 0 0 1 42.666666-42.666666h341.333334a42.666667 42.666667 0 0 1 42.666666 42.666666z m0-256a42.666667 42.666667 0 0 1-42.666666 42.666666H341.333333a42.666667 42.666667 0 0 1-42.666666-42.666666v-85.333334a42.666667 42.666667 0 0 1 42.666666-42.666666h341.333334a42.666667 42.666667 0 0 1 42.666666 42.666666z m0-256a42.666667 42.666667 0 0 1-42.666666 42.666666H341.333333a42.666667 42.666667 0 0 1-42.666666-42.666666V213.333333a42.666667 42.666667 0 0 1 42.666666-42.666666h341.333334a42.666667 42.666667 0 0 1 42.666666 42.666666z m170.666667 384a42.666667 42.666667 0 0 1-42.666667 42.666666h-42.666666a128 128 0 0 0-33.28-85.333333 128 128 0 0 0 33.28-85.333333h42.666666a42.666667 42.666667 0 0 1 42.666667 42.666666z m0-256a42.666667 42.666667 0 0 1-42.666667 42.666666h-42.666666a128 128 0 0 0-33.28-85.333333A128 128 0 0 0 810.666667 298.666667h42.666666a42.666667 42.666667 0 0 1 42.666667 42.666666z m-256-213.333334a42.666667 42.666667 0 1 0 42.666667 42.666667 42.666667 42.666667 0 0 0-42.666667-42.666667z m-170.666667 0H384a42.666667 42.666667 0 0 0 0 85.333334h85.333333a42.666667 42.666667 0 0 0 0-85.333334z" p-id="4446" fill="#7f5700"></path></svg>