<?xml version="1.0" standalone="no"?><!DOCTYPE svg PUBLIC "-//W3C//DTD SVG 1.1//EN" "http://www.w3.org/Graphics/SVG/1.1/DTD/svg11.dtd"><svg t="1715261131149" class="icon" viewBox="0 0 1024 1024" version="1.1" xmlns="http://www.w3.org/2000/svg" p-id="8037" xmlns:xlink="http://www.w3.org/1999/xlink" width="128" height="128"><path d="M711.68 392.704v68.388571h20.918857c18.432 0 29.549714-3.730286 35.84-9.142857 5.851429-4.900571 9.654857-12.946286 9.654857-27.355428 0-13.897143-3.949714-20.406857-9.508571-24.356572-6.729143-4.754286-18.432-7.533714-37.302857-7.533714H711.68z" p-id="8038" fill="#7f5700"></path><path d="M146.285714 109.714286a73.142857 73.142857 0 0 0-73.142857 73.142857V731.428571c0 37.156571 27.648 73.508571 63.488 73.142858h750.738286c35.84 0.365714 63.488-35.986286 63.488-73.142858V182.857143a73.142857 73.142857 0 0 0-73.142857-73.142857H146.285714z m379.318857 219.428571c34.889143 0 62.025143 17.481143 78.921143 36.717714l7.460572 8.484572-37.083429 45.641143-9.508571-10.313143c-11.117714-11.922286-23.405714-19.017143-39.131429-19.017143a50.614857 50.614857 0 0 0-41.910857 20.992c-10.459429 13.897143-17.261714 35.108571-17.261714 63.268571 0 28.672 6.436571 50.176 16.530285 64.219429a49.005714 49.005714 0 0 0 41.691429 21.138286c17.92 0 32.182857-8.192 45.129143-22.966857l9.508571-10.971429 36.864 45.348571-7.021714 8.484572c-21.942857 26.404571-50.322286 41.545143-85.869714 41.545143a112.64 112.64 0 0 1-86.966857-38.912c-21.942857-25.453714-34.596571-61.878857-34.596572-106.496s12.946286-81.408 35.328-107.227429A114.176 114.176 0 0 1 525.604571 329.142857z m-134.582857 4.900572v59.977142h-72.411428v223.158858h-63.707429v-223.085715H182.857143v-60.050285h208.164571z m257.024 0h86.893715c28.306286 0 54.857143 4.973714 74.532571 19.382857 20.48 14.994286 31.670857 38.765714 31.670857 71.168 0 31.670857-11.190857 56.173714-31.012571 72.411428-19.309714 15.945143-45.494857 22.747429-73.874286 22.747429H711.68v97.426286H648.045714V334.043429zM256 877.714286a36.571429 36.571429 0 0 0 0 73.142857h512a36.571429 36.571429 0 0 0 0-73.142857h-512z" p-id="8039" fill="#7f5700"></path></svg>